<svg xmlns="http://www.w3.org/2000/svg" viewBox="0 0 1024 1024" width="100%" height="100%">
  <defs>
    <filter id="neonGlow" x="-20%" y="-20%" width="140%" height="140%">
      <feGaussianBlur stdDeviation="8" result="blur1" />
      <feGaussianBlur stdDeviation="15" result="blur2" />
      <feMerge>
        <feMergeNode in="blur2" />
        <feMergeNode in="blur1" />
        <feMergeNode in="SourceGraphic" />
      </feMerge>
    </filter>
    <filter id="softGlow" x="-20%" y="-20%" width="140%" height="140%">
      <feGaussianBlur stdDeviation="4" result="blur" />
      <feMerge>
        <feMergeNode in="blur" />
        <feMergeNode in="SourceGraphic" />
      </feMerge>
    </filter>
    <linearGradient id="textGradient" x1="0%" y1="0%" x2="0%" y2="100%">
      <stop offset="45%" stop-color="#ffffff" />
      <stop offset="55%" stop-color="#7bf8ff" />
      <stop offset="100%" stop-color="#14c8d1" />
    </linearGradient>
    <linearGradient id="decoGradient" x1="0%" y1="0%" x2="0%" y2="100%">
      <stop offset="0%" stop-color="#0cf1f9" />
      <stop offset="100%" stop-color="#046e7f" />
    </linearGradient>
  </defs>

  <!-- CONCENTRIC RINGS -->
  <g transform="translate(512, 512)">
    <circle r="460" fill="none" stroke="#056e7e" stroke-width="4" />
    <circle r="450" fill="none" stroke="#0cf1f9" stroke-width="6" filter="url(#softGlow)" />
    <circle r="435" fill="none" stroke="#056e7e" stroke-width="2" />
    <circle r="410" fill="none" stroke="#0cf1f9" stroke-width="18" stroke-dasharray="160 10 30 10" opacity="0.8" />
    <circle r="385" fill="none" stroke="#0cf1f9" stroke-width="2" />
    <g stroke="#0cf1f9" stroke-width="2" fill="none">
      <circle r="365" />
      <circle r="345" stroke-dasharray="6 8" />
      <rect x="-15" y="-380" width="30" height="30" fill="#0b172d" stroke="#0cf1f9" stroke-width="4" />
      <rect x="-8" y="-373" width="16" height="16" fill="#0cf1f9" />
      <rect x="-15" y="350" width="30" height="30" fill="#0b172d" stroke="#0cf1f9" stroke-width="4" />
      <rect x="-8" y="357" width="16" height="16" fill="#0cf1f9" />
    </g>
    <g transform="rotate(45)">
      <rect x="-300" y="-300" width="16" height="16" fill="none" stroke="#0cf1f9" stroke-width="3" />
      <rect x="284" y="-300" width="16" height="16" fill="none" stroke="#0cf1f9" stroke-width="3" />
      <rect x="-300" y="284" width="16" height="16" fill="none" stroke="#0cf1f9" stroke-width="3" />
      <rect x="284" y="284" width="16" height="16" fill="none" stroke="#0cf1f9" stroke-width="3" />
    </g>
    <circle r="320" fill="none" stroke="#0cf1f9" stroke-width="8" filter="url(#softGlow)" />
    <circle r="300" fill="none" stroke="#045a68" stroke-width="1" />
  </g>

  <!-- CLOUD VECTOR -->
  <g>
    <path d="M 280 435 C 280 340, 340 280, 410 290 C 440 230, 584 230, 614 290 C 684 280, 744 340, 744 435" fill="none" stroke="#0cf1f9" stroke-width="12" filter="url(#neonGlow)" stroke-linecap="round" />
    <path d="M 300 435 C 300 355, 350 305, 410 315 C 440 265, 584 265, 614 315 C 674 305, 724 355, 724 435" fill="none" stroke="#0cf1f9" stroke-width="4" />
    <path d="M 360 435 L 360 380 L 390 350 L 410 350 L 410 380 L 440 400 L 440 435" fill="none" stroke="#065d6c" stroke-width="4" />
    <path d="M 664 435 L 664 380 L 634 350 L 614 350 L 614 380 L 584 400 L 584 435" fill="none" stroke="#065d6c" stroke-width="4" />
    <path d="M 470 435 L 470 330 L 490 310 L 512 310 L 512 435" fill="none" stroke="#065d6c" stroke-width="4" />
    <path d="M 554 435 L 554 330 L 534 310 L 512 310" fill="none" stroke="#065d6c" stroke-width="4" />
  </g>

  <!-- ART-DECO WINGS -->
  <g transform="translate(512, 570)">
    <rect x="-6" y="0" width="12" height="150" fill="url(#decoGradient)" />
    <path d="M 0 150 L 15 170 L -15 170 Z" fill="#0cf1f9" />
    <rect x="-30" y="0" width="8" height="130" fill="url(#decoGradient)" />
    <rect x="22" y="0" width="8" height="130" fill="url(#decoGradient)" />
    <rect x="-54" y="0" width="8" height="110" fill="url(#decoGradient)" />
    <rect x="46" y="0" width="8" height="110" fill="url(#decoGradient)" />
    <g stroke="#0cf1f9" stroke-width="6" fill="none" stroke-linecap="round">
      <line x1="-70" y1="20" x2="-220" y2="120" />
      <line x1="-70" y1="40" x2="-200" y2="150" />
      <line x1="-70" y1="60" x2="-160" y2="160" />
      <line x1="-70" y1="80" x2="-120" y2="160" />
      <path d="M -70 100 A 150 150 0 0 0 -240 20" stroke-width="4" />
    </g>
    <g stroke="#0cf1f9" stroke-width="6" fill="none" stroke-linecap="round">
      <line x1="70" y1="20" x2="220" y2="120" />
      <line x1="70" y1="40" x2="200" y2="150" />
      <line x1="70" y1="60" x2="160" y2="160" />
      <line x1="70" y1="80" x2="120" y2="160" />
      <path d="M 70 100 A 150 150 0 0 1 240 20" stroke-width="4" />
    </g>
  </g>

  <!-- CENTRAL BANNER -->
  <g transform="translate(512, 502)">
    <rect x="-400" y="-68" width="800" height="136" fill="#08101d" />
    <rect x="-400" y="-68" width="800" height="136" fill="none" stroke="#0cf1f9" stroke-width="6" filter="url(#neonGlow)" />
    <rect x="-392" y="-60" width="784" height="120" fill="none" stroke="#056e7e" stroke-width="2" />
    <polygon points="-415,0 -400,-25 -370,-25 -355,0 -370,25 -400,25" fill="#08101d" stroke="#0cf1f9" stroke-width="3" />
    <polygon points="415,0 400,-25 370,-25 355,0 370,25 400,25" fill="#08101d" stroke="#0cf1f9" stroke-width="3" />
    <g transform="scale(1.1) translate(3, 0)">
      <g fill="url(#textGradient)">
        <path d="M -297 35 L -272 -35 H -232 L -207 35 H -230 L -235 15 H -269 L -274 35 Z M -264 -3 H -240 L -252 -21 Z" />
        <path d="M -187 35 V -35 H -132 C -102 -35 -102 10 -132 10 L -108 35 H -136 L -151 10 H -165 V 35 Z" />
        <path d="M -92 35 V -35 H -70 L -52 -5 L -34 -35 H -12 V 35 H -32 V -5 L -52 20 L -72 -5 V 35 Z" />
        <path d="M 4 -35 H 26 L 44 -2 L 62 -35 H 84 L 55 10 V 35 H 33 V 10 Z" />
        <path d="M 98 35 V -35 H 120 L 151 10 V -35 H 171 V 35 H 149 L 118 -10 V 35 Z" />
        <path d="M 188 -35 H 238 V -16 H 210 V -7 H 233 V 8 H 210 V 17 H 238 V 35 H 188 Z" />
        <path d="M 252 -35 H 312 V -16 H 293 V 35 H 271 V -16 H 252 Z" />
      </g>
      <path d="M -165 -21 H -144 C -137 -21 -137 -2 -144 -2 H -165 Z" fill="#08101d" />
    </g>
  </g>
</svg>
